<?xml version="1.0" standalone="no"?>
<!DOCTYPE svg PUBLIC "-//W3C//DTD SVG 20010904//EN"
 "http://www.w3.org/TR/2001/REC-SVG-20010904/DTD/svg10.dtd">
<svg version="1.0" xmlns="http://www.w3.org/2000/svg"
 width="640.000000pt" height="640.000000pt" viewBox="0 0 640.000000 640.000000"
 preserveAspectRatio="xMidYMid meet">
<metadata>
Created by potrace 1.11, written by Peter Selinger 2001-2013
</metadata>
<g transform="translate(0.000000,640.000000) scale(0.100000,-0.100000)"
fill="#000000" stroke="none">
<path d="M1675 5442 c-2 -2 -27 -5 -57 -7 -66 -3 -118 -15 -118 -26 0 -5 -3
-8 -7 -7 -13 3 -66 -29 -98 -59 -60 -57 -100 -132 -111 -208 -6 -43 -8 -164
-2 -170 3 -3 2 -25 -2 -50 -4 -24 -4 -49 0 -55 4 -7 4 -26 1 -43 -4 -18 -4
-49 0 -70 3 -20 3 -39 -1 -42 -3 -2 -4 -27 0 -55 4 -27 4 -50 1 -50 -7 0 -5
-109 1 -116 3 -2 2 -24 -2 -49 -4 -24 -4 -49 0 -55 4 -7 4 -26 1 -43 -4 -18
-4 -49 0 -70 3 -20 3 -39 -1 -42 -3 -2 -4 -27 0 -55 4 -27 4 -50 1 -50 -7 0
-5 -109 1 -116 3 -2 2 -24 -2 -49 -4 -24 -3 -50 1 -57 4 -6 6 -15 4 -19 -5 -6
-8 -205 -5 -224 1 -5 1 -14 0 -20 -1 -5 -2 -34 -1 -63 l1 -54 -60 4 c-33 1
-60 1 -60 -3 0 -3 -25 -2 -55 1 -30 3 -55 2 -55 -3 0 -4 -4 -6 -9 -3 -7 5 -44
6 -126 6 -11 0 -38 -1 -60 -1 -22 0 -44 0 -50 0 -5 0 -68 0 -140 0 -71 0 -137
0 -145 0 -8 -1 -60 0 -115 1 -55 1 -104 1 -110 0 -5 -1 -13 -2 -16 -2 -22 3
-81 3 -126 0 -56 -4 -92 -24 -127 -72 -20 -26 -21 -41 -21 -246 0 -205 1 -220
21 -246 29 -39 65 -64 100 -69 16 -2 30 -4 32 -5 6 -3 93 -2 96 1 3 2 45 2 95
-1 50 -3 91 -2 91 1 0 3 23 3 50 -1 28 -4 53 -3 55 0 3 4 22 4 42 1 21 -4 52
-4 70 0 17 3 36 3 43 -1 6 -4 31 -4 55 0 25 4 47 5 49 2 5 -4 229 -6 251 -1 6
1 14 1 19 0 23 -4 136 -4 141 0 3 3 26 3 52 -1 27 -3 65 -3 85 1 21 3 40 4 43
1 2 -2 32 -4 67 -3 153 3 238 15 238 34 0 6 3 8 6 4 13 -13 103 57 146 114 53
69 70 142 68 284 -1 11 0 41 0 68 1 26 -1 51 -5 56 -3 5 -2 12 3 15 5 3 6 28
2 56 -4 27 -4 50 -1 50 7 0 5 109 -1 116 -3 2 -2 24 2 49 4 24 4 49 0 55 -4 7
-4 26 -1 43 4 18 4 49 0 70 -3 20 -3 39 1 42 3 2 4 27 0 55 -4 27 -4 50 -1 50
7 0 5 109 -1 116 -3 2 -2 24 2 49 4 24 4 49 0 54 -3 6 -3 38 0 71 3 34 4 63 2
65 -4 3 -5 134 -2 153 2 10 1 127 -1 138 -1 5 0 14 1 19 1 6 1 27 0 48 -1 30
3 39 22 46 12 4 35 5 50 1 14 -5 28 -6 30 -4 5 5 38 5 183 4 66 -1 125 -1 130
0 6 1 14 2 19 1 11 -2 128 -3 141 -1 6 1 46 1 90 0 44 0 128 -1 188 -1 l107
-1 1 -27 c1 -14 0 -30 -1 -36 -2 -12 -2 -126 1 -140 1 -5 0 -14 -1 -20 -1 -5
-1 -52 0 -102 1 -111 1 -93 -1 -226 -1 -59 1 -110 3 -113 3 -2 2 -23 -2 -44
-4 -22 -3 -43 1 -46 5 -3 7 -9 4 -14 -4 -7 -6 -64 -4 -110 0 -8 0 -51 0 -95 0
-44 0 -87 0 -95 0 -8 -1 -64 -2 -123 -1 -59 1 -110 3 -113 3 -2 2 -23 -2 -44
-4 -22 -3 -43 1 -46 5 -3 7 -9 4 -14 -5 -8 -6 -48 -5 -170 1 -41 0 -79 0 -85
-2 -13 -1 -130 1 -141 1 -5 1 -13 0 -19 -5 -22 -3 -246 1 -251 3 -2 2 -24 -2
-49 -4 -24 -4 -49 0 -55 4 -7 4 -26 1 -43 -4 -18 -4 -49 0 -70 3 -20 3 -39 -1
-42 -3 -2 -4 -27 0 -55 4 -27 4 -50 1 -50 -3 0 -4 -41 -1 -91 3 -50 3 -93 1
-95 -4 -4 -4 -119 0 -140 1 -5 0 -13 -1 -19 -1 -5 -1 -53 0 -105 0 -52 1 -99
1 -105 -3 -164 -3 -227 1 -231 3 -2 2 -23 -2 -44 -4 -22 -3 -43 1 -46 5 -3 7
-9 4 -14 -7 -11 -7 -80 -2 -170 6 -94 40 -171 104 -233 84 -83 184 -115 333
-106 8 0 62 0 120 0 58 0 112 -1 120 0 8 0 33 0 55 0 22 0 47 0 55 0 8 0 69 0
135 -1 66 -1 125 -1 130 0 6 2 14 2 19 1 21 -4 136 -4 140 0 2 2 45 2 95 -1
50 -3 91 -2 91 1 0 3 23 3 50 -1 28 -4 53 -3 55 0 3 4 22 4 42 1 21 -4 52 -4
70 0 17 3 36 3 43 -1 6 -4 31 -4 55 0 25 4 47 5 50 2 6 -6 127 -4 170 2 80 12
162 57 215 120 31 37 61 85 65 105 2 9 8 27 13 41 5 14 10 45 10 70 4 153 4
181 0 185 -3 3 -2 22 1 43 4 20 4 58 1 85 -4 26 -4 49 -1 52 4 5 4 118 0 141
-1 5 0 14 1 19 2 12 2 128 -1 141 -1 5 0 14 1 19 2 12 2 128 -1 141 -1 5 0 14
1 19 2 12 2 128 -1 141 -1 5 0 14 1 19 2 12 2 128 -1 141 -1 5 0 14 1 19 2 12
2 128 -1 141 -1 5 0 14 1 19 2 12 2 128 -1 141 -1 5 0 14 1 19 1 6 1 27 0 48
-1 30 3 39 22 46 12 4 35 5 50 1 14 -5 28 -6 30 -4 5 5 38 5 183 4 66 -1 125
-1 130 0 6 1 14 2 19 1 11 -2 128 -3 141 -1 6 0 44 1 85 0 122 -1 162 0 170 5
5 3 11 1 14 -4 3 -4 24 -5 46 -1 21 4 42 5 44 2 8 -7 201 -5 227 3 40 12 90
56 105 91 10 25 14 84 14 225 0 205 -5 232 -55 279 -23 22 -135 56 -135 41 0
-4 -20 -5 -45 -1 -25 4 -45 3 -45 -2 0 -5 -4 -7 -9 -4 -7 5 -141 8 -231 5 -8
0 -58 1 -110 1 -52 1 -99 1 -105 0 -5 -1 -14 -2 -19 -1 -21 4 -136 4 -140 0
-2 -2 -45 -2 -95 1 -50 3 -91 2 -91 -1 0 -3 -23 -3 -50 1 -28 4 -53 3 -55 0
-3 -4 -22 -4 -42 -1 -21 4 -52 4 -70 0 -17 -3 -36 -3 -43 1 -6 4 -31 4 -55 0
-25 -4 -47 -5 -50 -2 -6 6 -127 4 -170 -2 -76 -11 -151 -51 -208 -111 -30 -32
-62 -85 -59 -97 1 -5 -2 -8 -7 -8 -9 0 -26 -63 -24 -87 0 -7 -2 -13 -6 -13 -3
0 -5 -26 -4 -57 3 -109 5 -200 4 -223 0 -8 0 -62 0 -120 0 -58 0 -112 0 -120
-3 -101 0 -273 4 -280 4 -6 3 -10 -2 -10 -4 0 -8 -22 -8 -50 0 -27 3 -50 6
-50 3 0 3 -22 -1 -49 -3 -27 -3 -57 0 -67 4 -10 4 -32 0 -49 -4 -16 -4 -41 0
-55 3 -14 4 -36 0 -50 -3 -14 -3 -43 0 -65 3 -22 3 -58 0 -80 -3 -22 -2 -59 1
-83 3 -23 3 -42 0 -42 -5 0 -6 -71 -1 -95 1 -5 2 -21 1 -33 -1 -23 -4 -24 -61
-20 -33 1 -60 1 -60 -3 0 -3 -25 -2 -55 1 -30 3 -55 2 -55 -3 0 -4 -4 -6 -9
-3 -7 5 -44 6 -126 6 -105 -1 -98 -1 -240 0 -66 1 -125 1 -130 0 -6 -1 -14 -2
-20 -1 -14 3 -128 3 -140 1 -5 -1 -22 -2 -36 -1 l-27 1 -1 108 c0 59 -1 143
-1 187 -1 44 -1 85 0 90 2 13 1 130 -1 141 -1 5 -1 14 0 19 5 22 3 246 -1 251
-3 2 -2 24 2 49 4 24 4 49 0 55 -4 7 -4 26 -1 43 4 18 4 49 0 70 -3 20 -3 39
1 42 3 2 4 27 0 55 -4 27 -4 50 -1 50 3 0 4 41 1 91 -3 50 -3 93 -1 95 4 4 4
119 0 140 -1 5 0 14 1 19 1 6 1 53 0 105 0 52 -1 100 -1 105 3 164 3 227 -1
231 -3 2 -2 23 2 44 4 22 3 43 -1 46 -5 3 -7 9 -4 14 4 7 6 64 4 110 0 8 0 51
0 95 0 44 0 87 0 95 0 8 1 64 2 123 1 59 -1 110 -3 113 -3 2 -2 23 2 44 4 22
3 43 -1 46 -5 3 -7 9 -4 14 5 8 6 48 5 170 -1 41 0 80 0 85 2 13 1 130 -1 141
-1 5 -1 14 0 19 3 13 3 248 0 255 -1 3 -1 8 0 13 8 47 -4 184 -20 227 -29 82
-106 169 -174 199 -63 28 -77 32 -129 37 -28 3 -53 7 -58 10 -4 3 -8 1 -8 -4
0 -5 -19 -6 -43 -2 -24 3 -52 3 -63 0 -10 -4 -33 -4 -50 0 -18 4 -38 4 -45 -1
-7 -4 -16 -6 -20 -3 -6 3 -158 6 -229 3 -8 0 -62 0 -120 0 -58 0 -112 0 -120
0 -8 0 -62 0 -120 0 -58 0 -112 1 -120 0 -8 0 -33 0 -55 0 -22 0 -47 0 -55 0
-8 0 -69 1 -135 1 -66 1 -125 1 -130 0 -6 -1 -12 -2 -15 -1 -10 4 -132 6 -135
3z"/>
</g>
</svg>
